<svg id="Layer_1" data-name="Layer 1" xmlns="http://www.w3.org/2000/svg" viewBox="0 0 823.07 132.56"><defs><style>.cls-1{fill:#00bcfe;}.cls-2{fill:#fefefe;}.cls-3{fill:#fdfefe;}.cls-4{fill:#f8fcfe;}.cls-5{fill:#28c6fe;}</style></defs><title>shvideo</title><path class="cls-1" d="M0,59.61Q0,33.38,0,7.15C0,1.56,1.54,0,7,0H113.1C118.34,0,120,1.67,120,7q0,53,0,106.05c0,5.29-1.66,7-6.88,7q-53.22,0-106.43,0c-5,0-6.67-1.73-6.67-6.79Q0,86.41,0,59.61Z"/><path class="cls-1" d="M499.12,60.2c-4,12.12-7.79,23.57-11.57,35-1.41,4.26-2.92,8.49-4.17,12.79a2.94,2.94,0,0,1-3.45,2.48c-4-.17-8.65,1.13-11.8-.52s-3.11-7-4.33-10.7C457.34,79.49,451,59.65,444.69,39.82c-.37-1.15-1.08-2.25-.66-3.78,4.82,0,9.69.15,14.54-.06,2.61-.12,2.71,1.67,3.18,3.27,4.11,14,8.17,28,12.3,42,.45,1.5.47,3.23,1.91,4.59,4.94-15.42,9.91-30.68,14.67-46,.91-3,2.1-4.45,5.39-4s7.71-1.39,10.13.77c2.19,1.95,2.51,6,3.55,9.23,3.9,12,7.73,24,11.66,35.93.45,1.36.46,3,1.9,4,4.61-15.48,9.24-30.87,13.74-46.3.72-2.45,1.6-3.75,4.51-3.54,4.34.31,8.72.08,13.51.08-3,9.3-6,18.27-8.89,27.26-4.78,14.7-9.6,29.38-14.26,44.12-.73,2.29-1.69,3.26-4.14,3.09a58.65,58.65,0,0,0-9,0c-2.52.21-3.44-.92-4.15-3.11-4.48-14-9.07-28-13.63-42C500.46,63.91,499.9,62.41,499.12,60.2Z"/><path class="cls-1" d="M763,99.65c0,9.57-.14,19.13.08,28.68.08,3.25-.7,4.5-4.1,4.18a60.91,60.91,0,0,0-9.74,0c-2.56.16-3.09-.87-3.08-3.23.09-17,0-34,0-51,0-13,.07-26-.06-39,0-2.6.65-3.5,3.32-3.34a100.87,100.87,0,0,0,10.86,0c2.2-.1,2.81.74,2.71,2.81-.14,2.8,0,5.62,0,8.38,1.13.14,1.41-.52,1.75-1,13.68-18.34,41.34-13.58,52.27,3.94,9.27,14.85,7.78,37.63-3.3,50.17-11.35,12.86-34.92,16.44-48.45.87C764.71,100.6,764.4,99.62,763,99.65Z"/><path class="cls-1" d="M669.17,99c0,10.41-.09,20.12.06,29.84,0,2.71-.56,3.83-3.49,3.62a83.29,83.29,0,0,0-10.48,0c-2.39.12-2.92-.8-2.91-3q.09-45.17,0-90.32c0-2.43.63-3.29,3.12-3.15a100.88,100.88,0,0,0,10.86,0c2.41-.13,3,.78,2.89,3-.16,2.72,0,5.45,0,8.13,1,.4,1.27-.3,1.61-.75,14-18.47,40.22-13.76,51.38,3.17,10.45,15.85,8.35,39.92-4.71,52.62s-32.64,12.49-45.33-.31C671.34,101.07,670.51,100.32,669.17,99Z"/><path class="cls-1" d="M218.44,111.32c-16.22-.27-28.44-5-39.33-13.47-2-1.58-2.38-2.68-.46-4.64a69.69,69.69,0,0,0,6.51-7.73c1.42-1.94,2.32-1.74,4.06-.31,8.86,7.35,18.92,11.5,30.65,10.88a21.78,21.78,0,0,0,9.34-2.46,10.94,10.94,0,0,0,6.12-10c.06-4.4-2.09-7.58-6-9.64-4.57-2.44-9.51-3.72-14.48-5A115.14,115.14,0,0,1,194,62c-17.66-8.26-16.62-33-4.49-43.11a36.18,36.18,0,0,1,22.06-8.23,55,55,0,0,1,35,10c2.26,1.58,3.08,2.75,1,5.19-2.49,3-4,7.78-7,9s-6.37-3.17-9.78-4.74C224,26.89,217,25.08,209.41,26.23s-11.88,6-11.53,12.71c.23,4.46,2.93,7,6.55,8.84,5.39,2.72,11.26,4,17.06,5.49,7.53,1.92,15,4.06,21.35,8.74,14,10.29,12.8,33-2.11,43.06C233.28,110.11,224.85,111.38,218.44,111.32Z"/><path class="cls-1" d="M287.87,46.11c5.94-6.86,12.7-11.15,21.55-11.56,16.29-.76,26.92,9,27.66,26.56.66,15.46.15,31,.23,46.46,0,2.05-.87,2.56-2.71,2.52-3.75-.09-7.5-.16-11.24,0-2.45.12-3.18-.64-3.16-3.14.13-12.61.07-25.23.06-37.85a37.72,37.72,0,0,0-.12-4.12C319,55,313.35,49.81,304,50c-9.12.2-15.6,6.43-16,15.94-.33,8.48-.12,17-.14,25.48,0,5.24-.07,10.49,0,15.73,0,2-.42,3-2.68,2.93-4-.14-8-.13-12,0-2.1.06-2.45-.89-2.45-2.7q.06-48.54,0-97.07c0-2.27.9-2.71,2.88-2.65,3.62.12,7.25.18,10.87,0,2.6-.14,3.44.7,3.4,3.36-.14,10.49-.05,21-.05,31.47Z"/><path class="cls-1" d="M615.29,101.37c-10.45,9.9-21.73,12.34-34.32,8.41-10.13-3.16-16.09-11.41-15.92-21.52.19-11,6.32-19.2,16.78-22.16,10-2.84,20-2.27,30,.12,4,1,4.07,1,3.41-3.11C614,55.33,609,50.93,600.58,50.26A46.75,46.75,0,0,0,579,53.64c-2.34,1-3.26.49-3.82-1.88A28.12,28.12,0,0,0,573,45.4c-1.87-3.65-.43-5,3.06-6.25,10.7-3.81,21.61-5.32,32.78-3.32,14.86,2.67,23,12.39,23.31,28.1.31,14.48,0,29,.15,43.47,0,2.23-.82,2.76-2.85,2.7-3.62-.13-7.26-.21-10.87,0-2.79.17-3.5-1-3.26-3.49C615.41,105.19,615.29,103.72,615.29,101.37Z"/><path class="cls-1" d="M432.37,72c1,20.86-15.84,38.64-37.56,39.72-22.38,1.11-40.26-15.1-41.28-37.41-.94-20.67,16-38.7,37.25-39.71C413.6,33.48,431.32,49.4,432.37,72Z"/><path class="cls-2" d="M59.91,9.91c5.5,0,11,.13,16.5-.05,2.59-.09,3.37.72,3.44,3.33C80.2,26,81.56,38.6,87,50.43a38,38,0,0,0,9,12.74c.78.69,2,1.15.3,2.44C85.32,74,82,86.2,80.32,99.09a76.93,76.93,0,0,0-.55,8.59c0,1.74-.6,2.43-2.41,2.43s-2.47-.53-2.39-2.36c.11-2.49.11-5,0-7.49-.15-3.25-1.9-5.13-5.2-5.16-6.5-.07-13-.1-19.49,0-3.48,0-5.14,1.88-5.26,5.44-.09,2.38-.1,4.76,0,7.12.08,1.74-.47,2.47-2.31,2.44s-2.46-.48-2.53-2.32C39.9,99.4,39,91.12,36.05,83.16c-2.51-6.82-6.2-12.78-12-17.3-.9-.7-2-1.07-.48-2.42C33.83,54.11,36.93,41.57,39,28.59a92.4,92.4,0,0,0,1-15.31c0-2.55.74-3.52,3.42-3.42C48.91,10.05,54.42,9.91,59.91,9.91Z"/><path class="cls-3" d="M110.06,35.1c0,7.25,0,14.49,0,21.74,0,2.13-.47,2.63-2.55,1.71-5.6-2.47-9.08-6.92-11.47-12.28-4.83-10.81-6.1-22.3-6.2-34,0-1.79.59-2.42,2.38-2.39,5,.09,10,.15,15,0,2.47-.08,2.89,1,2.86,3.13C110,20.36,110.06,27.73,110.06,35.1Z"/><path class="cls-2" d="M9.91,34.88c0-7.25.08-14.5-.05-21.74,0-2.35.52-3.38,3.1-3.28,4.87.18,9.75.06,14.62.05,1.3,0,2.54-.09,2.51,1.82-.21,13.34-1.37,26.46-8.28,38.34a21.16,21.16,0,0,1-8.57,8.12c-3,1.63-3.45.6-3.38-2.32C10,48.88,9.91,41.88,9.91,34.88Z"/><path class="cls-3" d="M110.06,90.42c0,5.61-.07,11.23,0,16.84,0,2.07-.61,2.89-2.77,2.84-5-.12-10-.07-15,0-1.63,0-2.54-.32-2.51-2.24.13-9.33,1.4-18.4,5.94-26.72a20.85,20.85,0,0,1,10.9-9.77c2.39-.95,3.56-.94,3.43,2.23C109.9,79.19,110.06,84.81,110.06,90.42Z"/><path class="cls-3" d="M9.91,90.38c0-5.74.07-11.48,0-17.22,0-2.19.36-2.86,2.71-2,6.5,2.28,10.49,7,13.1,13,3.21,7.45,4.32,15.3,4.44,23.36,0,1.94-.59,2.62-2.56,2.58-5-.11-10-.12-15,0-2.2.06-2.76-.83-2.73-2.87C10,101.61,9.91,96,9.91,90.38Z"/><path class="cls-4" d="M60.44,105c1.43.75,4.91-1.79,4.66,2.7-.08,1.35-.48,2.1-1.94,2.07s-3.22,0-4.83,0-3.47.49-3.51-2.39S56.65,105,58.29,105C58.91,105,59.53,105,60.44,105Z"/><path class="cls-2" d="M762.69,73.19c0-14.45,10.08-24.89,23.34-23.77,9.84.83,19.47,8.87,19.93,22.77s-9.45,25-22.63,24.58C771.62,96.42,762.72,86.26,762.69,73.19Z"/><path class="cls-2" d="M690.58,49.32c13,0,22.3,11.84,20.82,26.58-1,9.53-5.35,17-15,20-10.39,3.27-21.25-2.15-25.48-12.29-5.51-13.22-.1-28.08,11.94-32.88A19.65,19.65,0,0,1,690.58,49.32Z"/><path class="cls-2" d="M615.8,82.57c0,6.12-2.76,10.63-8.07,13.41a22.4,22.4,0,0,1-18.45,1.59c-4.65-1.64-7.17-5-7.32-9.38A9.84,9.84,0,0,1,588.69,78c8.58-3.34,17.15-1.92,25.66.55C616.76,79.26,615.34,81.26,615.8,82.57Z"/><path class="cls-2" d="M393.22,96.87c-12.81,0-22.65-10.23-22.7-23.7,0-13.67,9.24-23.68,22-23.73,13.05-.06,22.91,10.21,22.92,23.88S406.07,96.84,393.22,96.87Z"/><path class="cls-1" d="M50.2,61.39c2.32-6.53-.42-11.14-5.59-14.86a9.3,9.3,0,0,1-1.14-1.31c2.61-1.45,5.41-1.3,8-1.56a5,5,0,0,0,4.7-3.44c1-2.4,2.29-4.68,3.61-7.34,1.91,2,2.72,4.42,3.67,6.61,1.15,2.66,2.59,4.25,5.77,4.21,2.31,0,4.63.68,8.33,1.29-2.7,2.42-4.58,4.31-6.68,5.91s-2.32,3.29-1.81,5.57c.57,2.51,1.29,5.05.59,7.69-.28,0-.59,0-.74-.08C63,59.2,57.13,59.49,51.16,63.86,49.08,63.72,50,62.41,50.2,61.39Z"/><path class="cls-5" d="M50.2,61.39c.18.88-.05,1.92,1,2.47-.32.42-.9.88-1.21.53C49.06,63.39,49.65,62.36,50.2,61.39Z"/></svg>