<svg id="Capa_1" data-name="Capa 1" xmlns="http://www.w3.org/2000/svg" viewBox="0 0 755 755"><defs><style>.cls-1{fill:#fff;}.cls-2{fill:#78e3fd;}.cls-3{fill:#555882;}.cls-4{fill:#eef8ff;}</style></defs><title>logo</title><path class="cls-1" d="M378.11,753.77C170,753.77,1.23,585,1.23,376.89H0v.61C0,586,169,755,377.5,755S755,586,755,377.5v-.31C754.83,585.2,586.16,753.77,378.11,753.77Z"/><path class="cls-2" d="M378.11,753.77c208,0,376.72-168.57,376.89-376.58C754.83,169.05,586.22.34,378.11,0V152.23c124.08,0,224.66,100.58,224.66,224.66S502.19,601.54,378.11,601.54,153.46,501,153.46,376.89H1.23C1.23,585,170,753.77,378.11,753.77Z"/><path class="cls-3" d="M153.46,376.89C153.46,501,254,601.54,378.11,601.54S602.77,501,602.77,376.89,502.19,152.23,378.11,152.23V376.89Z"/><path class="cls-4" d="M378.11,0h0C170,0,1.23,168.74,1.23,376.89H378.11Z"/></svg>