<?xml version="1.0" encoding="utf-8"?>
<!-- Generator: Adobe Illustrator 24.0.0, SVG Export Plug-In . SVG Version: 6.00 Build 0)  -->
<svg version="1.1" id="Capa_1" xmlns="http://www.w3.org/2000/svg" xmlns:xlink="http://www.w3.org/1999/xlink" x="0px" y="0px"
	 viewBox="0 0 255.6 48" style="enable-background:new 0 0 255.6 48;" xml:space="preserve">
<style type="text/css">
	.st0{filter:url(#editing-extrude-glow);}
	.st1{fill:#0ABFFE;}
</style>
<filter  id="editing-extrude-glow">
	<feFlood  flood-color="#ffffff" result="flood-1"></feFlood>
	<feMorphology  in="SourceAlpha" operator="erode" radius="1" result="erode"></feMorphology>
	<feComposite  in="flood-1" in2="erode" operator="in" result="comp1"></feComposite>
	<feConvolveMatrix  divisor="1" edgeMode="duplicate" in="comp1" kernelMatrix="0 0 0 1 1 1 0 0 0" order="3,3" result="convolve">
		</feConvolveMatrix>
	<feOffset  dx="-3" dy="0" in="convolve" result="extrude"></feOffset>
	<feComposite  in="flood-1" in2="extrude" operator="in" result="comp-extrude"></feComposite>
	<feFlood  flood-color="#ffffff" result="flood-2"></feFlood>
	<feComposite  in="flood-2" in2="SourceAlpha" operator="in" result="comp2"></feComposite>
	<feMorphology  in="comp2" operator="dilate" radius="1" result="dilate"></feMorphology>
	<feOffset  dx="-4.5" dy="0" in="dilate" result="offset"></feOffset>
	<feGaussianBlur  in="offset" result="blur" stdDeviation="5.8"></feGaussianBlur>
	<feComponentTransfer  in="blur" result="shadow">
		<feFuncA  intercept="-0.2" slope="0.8" type="linear"></feFuncA>
	</feComponentTransfer>
	<feMerge>
		<feMergeNode  in="shadow"></feMergeNode>
		<feMergeNode  in="comp-extrude"></feMergeNode>
		<feMergeNode  in="SourceGraphic"></feMergeNode>
	</feMerge>
</filter>
<g class="st0">
	<g transform="translate(121.9703109562397, 98.9921875)">
		<path class="st1" d="M-96.3-95L-96.3-95L-96.3-95c10.5,0,15.7,3.7,15.7,11.1l0,0l0,0c0,4.1-1.3,7.3-3.9,9.7l0,0l0,0
			c-2.6,2.4-6.1,3.7-10.6,3.7l0,0l0,0c-2.1,0-3.9-0.6-5.6-1.8l0,0l0,0c-0.8-0.5-1.4-1.1-1.9-1.8l0,0l0,0c3.1,0,5.5-0.9,7.1-2.8l0,0
			l0,0c1.6-1.9,2.5-4.7,2.5-8.4l0,0l0,0c0-3.7-1.8-5.6-5.5-5.6l0,0h-1.5l0,0c-0.3,0-0.5,0-0.7,0.1l0,0l-7.4,38.6H-122l7.9-41.9l0,0
			c4.6-0.4,8.2-0.7,10.8-0.7l0,0l0,0C-100.6-94.9-98.3-95-96.3-95z M-60.3-70.3L-60.3-70.3L-60.3-70.3c1.5-2.7,2.3-5.5,2.3-8.3l0,0
			l0,0c0-1.8-0.7-2.8-2-2.8l0,0l0,0c-1,0-2.1,0.9-3.1,2.6l0,0l0,0c-1.1,1.8-1.8,3.8-2.2,6l0,0l-3.3,20.3L-81.8-51l6.5-33.9l10.6-1.3
			l-1.2,6.5l0,0c2.1-4.3,5.5-6.5,10.2-6.5l0,0l0,0c2.5,0,4.4,0.6,5.7,1.9l0,0l0,0c1.3,1.3,2,3.2,2,5.9l0,0l0,0
			c0,2.6-0.9,4.8-2.6,6.4l0,0l0,0c-1.7,1.7-4.1,2.5-7,2.5l0,0l0,0C-58.9-69.5-59.8-69.7-60.3-70.3z M-21-63.1L-21-63.1L-21-63.1
			c1.1,0.7,1.6,1.9,1.6,3.5l0,0l0,0c0,1.6-0.4,2.9-1.2,3.9l0,0l0,0c-0.8,1-1.9,1.9-3.2,2.6l0,0l0,0c-2.7,1.4-5.6,2.1-8.5,2.1l0,0
			l0,0c-2.9,0-5.3-0.3-7-1l0,0l0,0c-1.7-0.6-3.2-1.6-4.3-2.8l0,0l0,0c-2.3-2.3-3.4-5.5-3.4-9.6l0,0l0,0c0-6.4,1.8-11.6,5.3-15.6l0,0
			l0,0c3.8-4.2,8.9-6.3,15.4-6.3l0,0l0,0c4.1,0,7.1,0.9,9.1,2.6l0,0l0,0c1.5,1.3,2.2,3,2.2,5.1l0,0l0,0c0,7.5-6.5,11.3-19.5,11.3
			l0,0l0,0c-0.2,1.1-0.3,2.1-0.3,3.1l0,0l0,0c0,2,0.4,3.3,1.3,4.1l0,0l0,0c0.9,0.7,2.1,1.1,3.7,1.1l0,0l0,0c1.6,0,3.3-0.4,5-1.1l0,0
			l0,0C-23-60.9-21.8-61.9-21-63.1z M-34.1-70.1L-34.1-70.1L-34.1-70.1c3,0,5.4-0.9,7.2-2.8l0,0l0,0c1.7-1.8,2.6-4.1,2.6-7l0,0l0,0
			c0-1-0.2-1.7-0.5-2.3l0,0l0,0c-0.4-0.5-0.9-0.8-1.6-0.8l0,0l0,0c-0.7,0-1.4,0.1-2,0.4l0,0l0,0c-0.6,0.3-1.2,0.9-1.9,1.8l0,0l0,0
			C-32-78.6-33.2-75-34.1-70.1z M10.3-83.8L10.3-83.8L10.3-83.8c1.4-1.6,3.3-2.4,5.8-2.4l0,0l0,0c1.5,0,2.8,0.4,4,1.2l0,0l0,0
			c1.2,0.8,1.7,2,1.7,3.5l0,0l0,0c0,1.5-0.2,3.1-0.7,4.7l0,0l0,0c-0.5,1.6-1.1,3.3-1.8,4.9l0,0l0,0c-1.5,3.2-3.2,6.2-5.2,8.9l0,0
			l0,0c-2.8,3.9-5.6,6.9-8.3,8.9l0,0l0,0C3.1-52,0.3-51-2.7-51l0,0l0,0c-2.4,0-4.3-0.3-5.8-0.8l0,0l0,0c-0.3-9-0.5-15-0.9-18.2l0,0
			l0,0c-0.3-3.2-0.6-5.7-0.9-7.4l0,0l0,0c-0.4-3.4-1.3-5.5-2.6-6.3l0,0l0,0c1-0.9,2-1.5,2.9-1.8l0,0l0,0c1-0.4,2.4-0.5,4.4-0.5l0,0
			l0,0c2,0,3.7,0.8,5.1,2.3l0,0l0,0c1.4,1.6,2.3,3.7,2.5,6.5l0,0l0,0c0.3,2.8,0.4,5.8,0.4,9.1l0,0l0,0c0,3.3-0.1,7-0.4,11l0,0l0,0
			c1.3-0.9,2.7-2.8,4.1-5.7l0,0l0,0c1.9-4,3.2-8.3,3.9-13.1l0,0l0,0c0.2-1.4,0.3-2.9,0.3-4.5l0,0l0,0C10.6-82.1,10.5-83.2,10.3-83.8
			z M38.9-55.8L38.9-55.8L38.9-55.8c-1.3,3.2-4.1,4.8-8.3,4.8l0,0l0,0c-2.2,0-3.9-0.7-5.3-2.2l0,0l0,0c-1.2-1.3-1.7-2.6-1.7-4l0,0
			l0,0c0-3.5,0.8-8.6,2.4-15.3l0,0l2.4-12.4l13-1.3L37.3-66l0,0c-0.7,3.2-1.1,5.3-1.1,6.4l0,0l0,0C36.2-57.1,37.1-55.9,38.9-55.8z
			 M29.4-93.8L29.4-93.8L29.4-93.8c0-1.7,0.7-2.9,2.1-3.8l0,0l0,0c1.4-0.9,3.1-1.3,5.1-1.3l0,0l0,0c2,0,3.6,0.4,4.8,1.3l0,0l0,0
			c1.2,0.9,1.8,2.2,1.8,3.8l0,0l0,0c0,1.7-0.7,2.9-2,3.8l0,0l0,0c-1.3,0.9-3,1.3-5,1.3l0,0l0,0c-2,0-3.6-0.4-4.9-1.3l0,0l0,0
			C30-90.9,29.4-92.1,29.4-93.8z M70.2-63.1L70.2-63.1L70.2-63.1c1.1,0.7,1.6,1.9,1.6,3.5l0,0l0,0c0,1.6-0.4,2.9-1.2,3.9l0,0l0,0
			c-0.8,1-1.9,1.9-3.2,2.6l0,0l0,0c-2.7,1.4-5.6,2.1-8.5,2.1l0,0l0,0c-2.9,0-5.3-0.3-7-1l0,0l0,0c-1.7-0.6-3.2-1.6-4.3-2.8l0,0l0,0
			c-2.3-2.3-3.4-5.5-3.4-9.6l0,0l0,0c0-6.4,1.8-11.6,5.3-15.6l0,0l0,0c3.8-4.2,8.9-6.3,15.4-6.3l0,0l0,0c4.1,0,7.1,0.9,9.1,2.6l0,0
			l0,0c1.5,1.3,2.2,3,2.2,5.1l0,0l0,0c0,7.5-6.5,11.3-19.5,11.3l0,0l0,0c-0.2,1.1-0.3,2.1-0.3,3.1l0,0l0,0c0,2,0.4,3.3,1.3,4.1l0,0
			l0,0c0.9,0.7,2.1,1.1,3.8,1.1l0,0l0,0c1.6,0,3.3-0.4,5-1.1l0,0l0,0C68.3-60.9,69.5-61.9,70.2-63.1z M57.2-70.1L57.2-70.1
			L57.2-70.1c3,0,5.4-0.9,7.2-2.8l0,0l0,0c1.8-1.8,2.6-4.1,2.6-7l0,0l0,0c0-1-0.2-1.7-0.6-2.3l0,0l0,0c-0.4-0.5-0.9-0.8-1.6-0.8l0,0
			l0,0c-0.7,0-1.4,0.1-2,0.4l0,0l0,0c-0.6,0.3-1.2,0.9-1.9,1.8l0,0l0,0C59.3-78.6,58.1-75,57.2-70.1z M126.1-63L126.1-63
			c-2.8,3.9-5.6,6.9-8.3,8.9l0,0l0,0c-2.7,2-5.5,3.1-8.3,3.1l0,0l0,0c-2.8,0-4.7-0.3-5.7-0.8l0,0v-14.1l0,0
			c-2.4,6.5-5.8,11-10.2,13.5l0,0l0,0c-1.6,0.9-3.1,1.4-4.6,1.4l0,0l0,0c-2.9,0-4.9-0.3-6.1-0.8l0,0l0,0c-0.3-9.8-0.6-16-0.8-18.7
			l0,0l0,0c-0.3-2.7-0.5-4.9-0.7-6.6l0,0l0,0c-0.4-3.3-1.4-5.7-2.8-7l0,0l0,0c1.8-1.4,4-2,6.6-2l0,0l0,0c4.9,0,7.8,3.1,8.4,9.2l0,0
			l0,0c0.2,1.4,0.3,2.9,0.3,4.5l0,0l0,0c0,2.3-0.3,7.5-0.8,15.5l0,0l0,0c1-0.5,2.1-1.5,3.2-3.2l0,0l0,0c1.1-1.7,2.1-3.7,3-6l0,0l0,0
			c2-5.3,3-10.3,3-14.9l0,0l0,0c0-0.7-0.1-1.5-0.3-2.2l0,0l0,0c-0.2-0.8-0.4-1.3-0.6-1.5l0,0l0,0c1.5-0.9,3.4-1.3,5.7-1.3l0,0l0,0
			c2.3,0,4,0.8,5.1,2.3l0,0l0,0c1.1,1.6,1.8,3.8,2.1,6.6l0,0l0,0c0.3,3.6,0.5,6.5,0.5,8.7l0,0l0,0c0,3-0.2,6.8-0.4,11.3l0,0l0,0
			c2.1-1.5,4.1-4.8,5.8-9.9l0,0l0,0c1.7-5,2.6-9.3,2.6-12.9l0,0l0,0c0-1.6-0.1-2.8-0.4-3.8l0,0l0,0c1.4-1.6,3.3-2.4,5.8-2.4l0,0l0,0
			c1.5,0,2.8,0.4,3.9,1.2l0,0l0,0c1.1,0.8,1.6,2,1.6,3.5l0,0l0,0c0,1.5-0.2,3.1-0.7,4.7l0,0l0,0c-0.4,1.6-1,3.3-1.8,4.9l0,0l0,0
			C129.7-68.5,128.1-65.6,126.1-63L126.1-63z"/>
	</g>
</g>
</svg>
